<?xml version="1.0" encoding="utf-8"?>
<svg xmlns="http://www.w3.org/2000/svg" xmlns:xlink="http://www.w3.org/1999/xlink" style="margin: auto; background: none; display: block; shape-rendering: auto;" width="200px" height="200px" viewBox="0 0 100 100" preserveAspectRatio="xMidYMid">
<g transform="translate(50 50)">
<g>
<animateTransform attributeName="transform" type="rotate" values="0;45" keyTimes="0;1" dur="0.7142857142857142s" repeatCount="indefinite"></animateTransform><path d="M22.332711434127294 -5.5 L30.332711434127294 -5.5 L30.332711434127294 5.5 L22.332711434127294 5.5 A23 23 0 0 1 19.68069899387977 11.902524400827746 L19.68069899387977 11.902524400827746 L25.33755324337215 17.559378650320127 L17.559378650320127 25.33755324337215 L11.902524400827746 19.68069899387977 A23 23 0 0 1 5.500000000000002 22.332711434127294 L5.500000000000002 22.332711434127294 L5.500000000000003 30.332711434127294 L-5.499999999999998 30.332711434127294 L-5.499999999999999 22.332711434127294 A23 23 0 0 1 -11.902524400827742 19.68069899387977 L-11.902524400827742 19.68069899387977 L-17.55937865032012 25.33755324337215 L-25.33755324337215 17.559378650320127 L-19.68069899387977 11.902524400827748 A23 23 0 0 1 -22.332711434127294 5.5000000000000036 L-22.332711434127294 5.5000000000000036 L-30.332711434127294 5.500000000000004 L-30.332711434127294 -5.4999999999999964 L-22.332711434127294 -5.499999999999997 A23 23 0 0 1 -19.68069899387977 -11.902524400827742 L-19.68069899387977 -11.902524400827742 L-25.33755324337215 -17.55937865032012 L-17.559378650320127 -25.33755324337215 L-11.902524400827748 -19.68069899387977 A23 23 0 0 1 -5.500000000000004 -22.332711434127294 L-5.500000000000004 -22.332711434127294 L-5.500000000000006 -30.332711434127294 L5.499999999999995 -30.332711434127294 L5.4999999999999964 -22.332711434127294 A23 23 0 0 1 11.90252440082774 -19.68069899387977 L11.90252440082774 -19.68069899387977 L17.55937865032012 -25.33755324337215 L25.337553243372145 -17.559378650320134 L19.680698993879766 -11.902524400827751 A23 23 0 0 1 22.332711434127294 -5.500000000000006 M0 -20A20 20 0 1 0 0 20 A20 20 0 1 0 0 -20" fill="#459448"></path></g></g>
<!-- [ldio] generated by https://loading.io/ --></svg>